<svg xmlns="http://www.w3.org/2000/svg" version="1.1" xmlns:xlink="http://www.w3.org/1999/xlink" xmlns:svgjs="http://svgjs.dev/svgjs" width="1500" height="1500" viewBox="0 0 1500 1500"><rect width="1500" height="1500" fill="#ffffff"></rect><g transform="matrix(0.6666666666666666,0,0,0.6666666666666666,250.04047905881106,416.6035087719299)"><svg viewBox="0 0 370 247" data-background-color="#ffffff" preserveAspectRatio="xMidYMid meet" height="1001" width="1500" xmlns="http://www.w3.org/2000/svg" xmlns:xlink="http://www.w3.org/1999/xlink"><g id="tight-bounds" transform="matrix(1,0,0,1,-0.014977251760086574,-0.09999999999999432)"><svg viewBox="0 0 370.0299545035202 247.2" height="247.2" width="370.0299545035202"><g><svg viewBox="0 0 395.52000000000004 264.2287274585222" height="247.2" width="370.0299545035202"><g transform="matrix(1,0,0,1,0,159.87900660542027)"><svg viewBox="0 0 395.52000000000004 104.34972085310193" height="104.34972085310193" width="395.52000000000004"><g id="textblocktransform"><svg viewBox="0 0 395.52000000000004 104.34972085310193" height="104.34972085310193" width="395.52000000000004" id="textblock"><g><svg viewBox="0 0 395.52000000000004 66.36715458764726" height="66.36715458764726" width="395.52000000000004"><g transform="matrix(1,0,0,1,0,0)"><svg width="395.52000000000004" viewBox="2.8499999999999996 -34.5 280.08 47" height="66.36715458764726" data-palette-color="#50a060"><path d="M36.15-28.7L36.15-7.5Q36.15-3.45 34.7-1.73 33.25 0 30.3 0L30.3 0Q27.4 0 26.05-1.58 24.7-3.15 24.7-7.15L24.7-7.15 24.65-12.8 14.45-12.8 14.45-7.5Q14.45-3.4 13.05-1.7 11.65 0 8.6 0L8.6 0Q5.7 0 4.35-1.58 3-3.15 3-7.15L3-7.15 2.85-28.25Q2.85-31.35 4.42-32.8 6-34.25 8.6-34.25L8.6-34.25Q11.6-34.25 13.03-33.15 14.45-32.05 14.45-28.7L14.45-28.7 14.45-20.3 24.6-20.3 24.6-28.25Q24.6-30.35 25.38-31.73 26.15-33.1 27.38-33.68 28.6-34.25 30.3-34.25L30.3-34.25Q33.2-34.25 34.68-33.15 36.15-32.05 36.15-28.7L36.15-28.7ZM50.25 0.3L50.25 0.3Q46.3 0.3 43.7-2.93 41.1-6.15 41.1-11.75L41.1-11.75Q41.1-17.45 43.67-20.83 46.25-24.2 50.25-24.2L50.25-24.2Q54.3-24.2 57.75-21.35L57.75-21.35Q59.1-23.85 62.1-23.85L62.1-23.85Q64.8-23.85 66.3-22.68 67.8-21.5 67.8-18.35L67.8-18.35 67.8-5.35Q67.8-2.35 66.55-1.18 65.3 0 62.15 0L62.15 0Q58.85 0 57.8-1.85L57.8-1.85Q54.6 0.3 50.25 0.3ZM57.05-7.2L57.05-16.55Q56.2-18 54.85-18L54.85-18Q53.55-18 52.75-16.1 51.95-14.2 51.95-11.75L51.95-11.75Q51.95-9.45 52.7-7.65 53.45-5.85 54.8-5.85L54.8-5.85Q56.2-5.85 57.05-7.2L57.05-7.2ZM83.25-15.4L83.25-5.35Q83.25-2.35 82-1.18 80.75 0 77.55 0L77.55 0Q74.6 0 73.55-1.38 72.5-2.75 72.5-5.9L72.5-5.9 72.5-18.2Q72.5-19.9 73.1-21.18 73.7-22.45 74.85-23.15 76-23.85 77.55-23.85L77.55-23.85Q81.35-23.85 82.55-21.65L82.55-21.65Q85.45-23.85 88.15-23.85L88.15-23.85Q93.4-23.85 93.4-18.85L93.4-18.85Q93.4-16.85 92.25-15.6 91.1-14.35 89.25-14.35L89.25-14.35Q88.15-14.35 87.47-14.8 86.8-15.25 86.22-15.7 85.65-16.15 84.9-16.15L84.9-16.15Q83.8-16.15 83.25-15.4L83.25-15.4ZM109.14-7.5L109.14-7.5Q110.59-7.5 110.99-8.33 111.39-9.15 111.39-11.35L111.39-11.35 111.44-19.4Q111.44-20.95 111.97-21.9 112.49-22.85 113.74-23.35 114.99-23.85 117.09-23.85L117.09-23.85Q118.44-23.85 119.29-23.55 120.14-23.25 120.79-22.58 121.44-21.9 121.74-20.53 122.04-19.15 122.19-17.23 122.34-15.3 122.34-12.35L122.34-12.35Q122.34-9.65 121.49-7.5 120.64-5.35 119.32-3.98 117.99-2.6 116.24-1.68 114.49-0.75 112.74-0.38 110.99 0 109.22 0 107.44 0 105.69-0.38 103.94-0.75 102.17-1.68 100.39-2.6 99.04-3.98 97.69-5.35 96.84-7.5 95.99-9.65 95.99-12.35L95.99-12.35Q95.99-17.25 96.44-19.63 96.89-22 97.97-22.93 99.04-23.85 101.24-23.85L101.24-23.85Q104.34-23.85 105.64-22.78 106.94-21.7 106.94-19.4L106.94-19.4 106.99-11.4Q106.99-10.6 106.99-10.23 106.99-9.85 107.04-9.3 107.09-8.75 107.24-8.5 107.39-8.25 107.62-7.98 107.84-7.7 108.22-7.6 108.59-7.5 109.14-7.5ZM140.69 0.3L140.69 0.3Q134.59 0.3 130.62-2.85 126.64-6 126.64-11.45L126.64-11.45Q126.64-17.35 130.57-20.78 134.49-24.2 140.69-24.2L140.69-24.2Q146.54-24.2 149.27-22.13 151.99-20.05 151.99-16.45L151.99-16.45Q151.99-15.75 151.82-15.1 151.64-14.45 151.27-13.83 150.89-13.2 150.27-12.68 149.64-12.15 148.84-11.73 148.04-11.3 146.94-11.08 145.84-10.85 144.59-10.85L144.59-10.85 137.54-10.8Q138.04-9.2 139.34-8.28 140.64-7.35 142.64-7.35L142.64-7.35Q144.79-7.35 147.04-7.9L147.04-7.9Q147.99-8.15 149.12-8.7 150.24-9.25 150.74-9.25L150.74-9.25Q151.59-9.25 152.07-8.75 152.54-8.25 152.54-7.5L152.54-7.5Q152.54-6.6 151.74-5.33 150.94-4.05 149.52-2.78 148.09-1.5 145.74-0.6 143.39 0.3 140.69 0.3ZM137.29-14L137.29-14Q140.74-14.05 141.04-14.05L141.04-14.05Q141.79-14.05 142.14-14.95L142.14-14.95Q142.39-15.6 142.39-16.75L142.39-16.75Q142.39-19.9 140.49-19.9L140.49-19.9Q139.79-19.9 139.12-19.15 138.44-18.4 137.94-17.03 137.44-15.65 137.29-14ZM168.44-24.2L168.44-24.2Q173.09-24.2 176.19-22.3 179.29-20.4 179.29-18.15L179.29-18.15Q179.29-17.5 178.74-16.95 178.19-16.4 177.34-16.4L177.34-16.4Q176.59-16.4 175.69-16.93 174.79-17.45 173.99-18.05 173.19-18.65 171.89-19.15 170.59-19.65 169.14-19.65L169.14-19.65Q167.19-19.65 167.19-18.45L167.19-18.45Q167.19-17.6 168.19-17.1 169.19-16.6 171.11-16.05 173.04-15.5 174.04-15L174.04-15Q177.79-13.55 179.19-11.88 180.59-10.2 180.59-7.45L180.59-7.45Q180.59-6.1 179.84-4.78 179.09-3.45 177.59-2.27 176.09-1.1 173.51-0.38 170.94 0.35 167.64 0.35L167.64 0.35Q161.19 0.35 157.99-2.6L157.99-2.6Q156.44-4.05 156.44-5.6L156.44-5.6Q156.44-6.55 157.06-7.1 157.69-7.65 158.84-7.65L158.84-7.65Q159.99-7.65 162.34-6.53 164.69-5.4 166.69-5.4L166.69-5.4Q169.44-5.4 169.44-6.75L169.44-6.75Q169.44-7.45 167.99-7.88 166.54-8.3 164.19-8.9 161.84-9.5 160.44-10.4L160.44-10.4Q158.24-11.35 157.36-12.78 156.49-14.2 156.49-16.25L156.49-16.25Q156.49-19.75 159.81-21.98 163.14-24.2 168.44-24.2ZM186.29-10.7L186.29-10.7 186.29-16.6Q185.04-16.65 184.29-17.03 183.54-17.4 183.21-18 182.89-18.6 182.89-19.5L182.89-19.5Q182.89-22.35 186.34-22.6L186.34-22.6 186.34-27.25Q186.34-29.15 189.09-30.68 191.84-32.2 194.54-32.2L194.54-32.2Q196.19-32.2 196.69-31.25 197.19-30.3 197.19-28.4L197.19-28.4 197.24-22.65 198.59-22.65Q201.34-22.65 202.36-21.93 203.39-21.2 203.39-19.3L203.39-19.3Q203.39-18.5 203.09-17.95 202.79-17.4 202.11-17.1 201.44-16.8 200.49-16.68 199.54-16.55 198.14-16.55L198.14-16.55 197.24-16.55 197.24-11.05Q197.24-10.25 197.31-9.73 197.39-9.2 197.54-8.9 197.69-8.6 197.96-8.5 198.24-8.4 198.64-8.4L198.64-8.4Q199.24-8.4 199.64-8.83 200.04-9.25 200.26-9.78 200.49-10.3 200.86-10.73 201.24-11.15 201.74-11.15L201.74-11.15Q202.89-11.15 203.51-10.6 204.14-10.05 204.14-9.25L204.14-9.25Q204.14-7.9 203.61-6.35 203.09-4.8 202.09-3.35 201.09-1.9 199.31-0.95 197.54 0 195.34 0L195.34 0Q190.39 0 188.34-2.5 186.29-5 186.29-10.7ZM242.68-28.7L242.68-7.5Q242.68-3.45 241.23-1.73 239.78 0 236.83 0L236.83 0Q233.93 0 232.58-1.58 231.23-3.15 231.23-7.15L231.23-7.15 231.18-12.8 220.98-12.8 220.98-7.5Q220.98-3.4 219.58-1.7 218.18 0 215.13 0L215.13 0Q212.23 0 210.88-1.58 209.53-3.15 209.53-7.15L209.53-7.15 209.38-28.25Q209.38-31.35 210.96-32.8 212.53-34.25 215.13-34.25L215.13-34.25Q218.13-34.25 219.56-33.15 220.98-32.05 220.98-28.7L220.98-28.7 220.98-20.3 231.13-20.3 231.13-28.25Q231.13-30.35 231.91-31.73 232.68-33.1 233.91-33.68 235.13-34.25 236.83-34.25L236.83-34.25Q239.73-34.25 241.21-33.15 242.68-32.05 242.68-28.7L242.68-28.7ZM278.78 2.35L278.78 2.35Q280.73 2.45 281.68 3.55 282.63 4.65 282.63 7.25L282.63 7.25Q282.63 10.25 281.03 11.38 279.43 12.5 276.53 12.5L276.53 12.5Q273.63 12.5 271.06 11.68 268.48 10.85 267.06 9.9 265.63 8.95 264.53 7.8L264.53 7.8Q263.78 7.05 263.16 5.88 262.53 4.7 262.08 3.15 261.63 1.6 261.53-0.05L261.53-0.05Q255.43-1.2 251.66-5.6 247.88-10 247.88-16.85L247.88-16.85Q247.88-25 252.81-29.75 257.73-34.5 265.48-34.5L265.48-34.5Q273.18-34.5 278.06-29.75 282.93-25 282.93-16.85L282.93-16.85Q282.93-10.3 279.51-5.98 276.08-1.65 270.43-0.25L270.43-0.25Q272.48 2 278.78 2.35ZM270.08-12.15Q270.58-14.3 270.58-16.88 270.58-19.45 270.06-21.73 269.53-24 268.33-25.58 267.13-27.15 265.48-27.15L265.48-27.15Q263.83-27.15 262.61-25.55 261.38-23.95 260.81-21.68 260.23-19.4 260.23-16.85L260.23-16.85Q260.23-15.4 260.43-14 260.63-12.6 261.06-11.33 261.48-10.05 262.08-9.1 262.68-8.15 263.56-7.58 264.43-7 265.48-7L265.48-7Q267.18-7 268.38-8.5 269.58-10 270.08-12.15Z" opacity="1" transform="matrix(1,0,0,1,0,0)" fill="#50a060" class="wordmark-text-0" data-fill-palette-color="primary" id="text-0"></path></svg></g></svg></g><g transform="matrix(1,0,0,1,75.54432000000001,82.03484697408068)"><svg viewBox="0 0 244.43136 22.314873879021242" height="22.314873879021242" width="244.43136"><g transform="matrix(1,0,0,1,0,0)"><svg width="244.43136" viewBox="3.5 -36.15 402.5 36.75" height="22.314873879021242" data-palette-color="#50a060"><path d="M3.5 0L3.5-34.3 7.9-34.3 7.9-19.55 21.7-19.55 21.7-34.3 26.1-34.3 26.1 0 21.7 0 21.7-15.55 7.9-15.55 7.9 0 3.5 0ZM38.2 0.6Q35.5 0.6 33.4-1 31.3-2.6 31.3-6.8L31.3-6.8Q31.3-11.85 34.72-13.73 38.15-15.6 44.6-15.6L44.6-15.6 44.6-19Q44.6-21.05 43.7-22.15 42.8-23.25 40.45-23.25L40.45-23.25Q38.3-23.25 37.35-22.05 36.4-20.85 36.4-19.1L36.4-19.1 36.4-18.5 32.35-18.5Q32.3-18.8 32.3-19.6L32.3-19.6Q32.3-23.1 34.6-25 36.9-26.9 40.75-26.9L40.75-26.9Q44.7-26.9 46.7-25 48.7-23.1 48.7-19.55L48.7-19.55 48.7-4.8Q48.7-3.95 49.1-3.5 49.5-3.05 50.1-3.05L50.1-3.05 51.7-3.05 51.7-0.2Q50.6 0.4 49 0.4L49 0.4Q47.4 0.4 46.32-0.48 45.25-1.35 44.85-2.85L44.85-2.85 44.6-2.85Q43.6-1.2 41.92-0.3 40.25 0.6 38.2 0.6L38.2 0.6ZM39.15-3.05Q40.5-3.05 41.75-3.8 43-4.55 43.8-6.03 44.6-7.5 44.6-9.55L44.6-9.55 44.6-11.95Q40.1-11.95 37.85-10.93 35.6-9.9 35.6-7.05L35.6-7.05Q35.6-4.9 36.47-3.98 37.35-3.05 39.15-3.05L39.15-3.05ZM55.4 0L55.4-26.3 58.5-26.3 59.05-22.85 59.35-22.85Q59.9-24.6 61-25.75 62.1-26.9 63.8-26.9L63.8-26.9Q64.84-26.9 65.75-26.5L65.75-26.5 65.75-22.25 64.4-22.25Q62.25-22.25 60.87-20.78 59.5-19.3 59.5-16.05L59.5-16.05 59.5 0 55.4 0ZM74.09 0L66.54-26.3 71.04-26.3 74.59-12.95 76.39-6.3 76.59-6.3 78.39-13.1 81.94-26.3 86.09-26.3 78.54 0 74.09 0ZM98.59 0.6Q93.59 0.6 91.12-2.68 88.64-5.95 88.64-13.15L88.64-13.15Q88.64-20.2 91.09-23.55 93.54-26.9 98.54-26.9L98.54-26.9Q102.94-26.9 105.07-23.98 107.19-21.05 107.19-14.55L107.19-14.55 107.19-11.95 92.94-11.95Q92.99-7.35 94.37-5.2 95.74-3.05 98.69-3.05L98.69-3.05Q100.69-3.05 101.92-4.65 103.14-6.25 103.14-8.95L103.14-8.95 107.19-8.95Q107.19-4.55 104.82-1.98 102.44 0.6 98.59 0.6L98.59 0.6ZM92.99-15.6L102.89-15.6Q102.89-19.35 101.79-21.3 100.69-23.25 98.54-23.25L98.54-23.25Q95.89-23.25 94.57-21.38 93.24-19.5 92.99-15.6L92.99-15.6ZM119.44 0.6Q115.19 0.6 113.09-1.63 110.99-3.85 110.99-7.1L110.99-7.1Q110.99-7.7 111.01-7.93 111.04-8.15 111.04-8.2L111.04-8.2 115.34-8.2 115.34-7.7Q115.34-5.35 116.54-4.17 117.74-3 119.64-3L119.64-3Q121.34-3 122.46-4.03 123.59-5.05 123.59-6.9L123.59-6.9Q123.59-8.3 122.89-9.2 122.19-10.1 121.19-10.63 120.19-11.15 118.39-11.8L118.39-11.8Q116.19-12.55 114.84-13.3 113.49-14.05 112.54-15.53 111.59-17 111.59-19.4L111.59-19.4Q111.59-22.85 113.81-24.88 116.04-26.9 119.79-26.9L119.79-26.9Q123.34-26.9 125.34-24.83 127.34-22.75 127.34-19.7L127.34-19.7 127.29-18.75 123.04-18.75 123.04-19.2Q123.04-20.95 122.19-22.13 121.34-23.3 119.39-23.3L119.39-23.3Q117.44-23.3 116.64-22.2 115.84-21.1 115.84-19.7L115.84-19.7Q115.84-18 117.01-17.18 118.19-16.35 120.64-15.55L120.64-15.55Q122.89-14.75 124.34-13.98 125.79-13.2 126.81-11.65 127.84-10.1 127.84-7.5L127.84-7.5Q127.84-3.45 125.56-1.43 123.29 0.6 119.44 0.6L119.44 0.6ZM137.49 0.5Q134.99 0.5 133.89-1.23 132.78-2.95 132.78-5.55L132.78-5.55 132.78-22.65 130.53-22.65 130.53-26.3 132.78-26.3 133.69-33.6 136.89-33.6 136.89-26.3 140.44-26.3 140.44-22.65 136.89-22.65 136.89-5.45Q136.89-3.05 139.24-3.05L139.24-3.05 140.44-3.05 140.44-0.2Q139.89 0.1 139.06 0.3 138.24 0.5 137.49 0.5L137.49 0.5ZM163.43 0L163.43-14.2 152.33-34.3 157.18-34.3 165.88-18.4 166.08-18.4 174.63-34.3 178.88-34.3 167.83-14.2 167.83 0 163.43 0ZM187.43 0.6Q182.78 0.6 180.4-2.78 178.03-6.15 178.03-13.15L178.03-13.15Q178.03-20.15 180.4-23.53 182.78-26.9 187.43-26.9L187.43-26.9Q192.08-26.9 194.45-23.53 196.83-20.15 196.83-13.15L196.83-13.15Q196.83-6.15 194.45-2.78 192.08 0.6 187.43 0.6L187.43 0.6ZM187.43-3.05Q192.53-3.05 192.53-12.2L192.53-12.2 192.53-14.1Q192.53-23.25 187.43-23.25L187.43-23.25Q182.33-23.25 182.33-14.1L182.33-14.1 182.33-12.2Q182.33-3.05 187.43-3.05L187.43-3.05ZM208.33 0.6Q205.18 0.6 203.5-1.28 201.83-3.15 201.83-7.35L201.83-7.35 201.83-26.3 205.93-26.3 205.93-7.65Q205.93-5.1 206.88-4.08 207.83-3.05 209.63-3.05L209.63-3.05Q211.68-3.05 213.1-5 214.53-6.95 214.53-10.25L214.53-10.25 214.53-26.3 218.63-26.3 218.63 0 215.53 0 214.98-3.05 214.68-3.05Q212.63 0.6 208.33 0.6L208.33 0.6ZM224.62 0L224.62-26.3 227.72-26.3 228.27-22.85 228.57-22.85Q229.12-24.6 230.22-25.75 231.32-26.9 233.02-26.9L233.02-26.9Q234.07-26.9 234.97-26.5L234.97-26.5 234.97-22.25 233.62-22.25Q231.47-22.25 230.1-20.78 228.72-19.3 228.72-16.05L228.72-16.05 228.72 0 224.62 0ZM250.17 0L250.17-34.3 262.42-34.3Q267.37-34.3 270.02-31.6 272.67-28.9 272.67-24.3L272.67-24.3Q272.67-19.7 269.89-16.93 267.12-14.15 262.42-14.15L262.42-14.15 254.57-14.15 254.57 0 250.17 0ZM254.57-18.15L262.27-18.15Q264.87-18.15 266.47-19.83 268.07-21.5 268.07-24.3L268.07-24.3Q268.07-27.1 266.57-28.7 265.07-30.3 262.27-30.3L262.27-30.3 254.57-30.3 254.57-18.15ZM285.42 0.6Q280.77 0.6 278.39-2.78 276.02-6.15 276.02-13.15L276.02-13.15Q276.02-20.15 278.39-23.53 280.77-26.9 285.42-26.9L285.42-26.9Q290.07-26.9 292.44-23.53 294.82-20.15 294.82-13.15L294.82-13.15Q294.82-6.15 292.44-2.78 290.07 0.6 285.42 0.6L285.42 0.6ZM285.42-3.05Q290.52-3.05 290.52-12.2L290.52-12.2 290.52-14.1Q290.52-23.25 285.42-23.25L285.42-23.25Q280.32-23.25 280.32-14.1L280.32-14.1 280.32-12.2Q280.32-3.05 285.42-3.05L285.42-3.05ZM304.46 0.5Q301.96 0.5 300.86-1.23 299.76-2.95 299.76-5.55L299.76-5.55 299.76-22.65 297.51-22.65 297.51-26.3 299.76-26.3 300.66-33.6 303.86-33.6 303.86-26.3 307.41-26.3 307.41-22.65 303.86-22.65 303.86-5.45Q303.86-3.05 306.21-3.05L306.21-3.05 307.41-3.05 307.41-0.2Q306.86 0.1 306.04 0.3 305.21 0.5 304.46 0.5L304.46 0.5ZM320.26 0.6Q315.26 0.6 312.79-2.68 310.31-5.95 310.31-13.15L310.31-13.15Q310.31-20.2 312.76-23.55 315.21-26.9 320.21-26.9L320.21-26.9Q324.61-26.9 326.74-23.98 328.86-21.05 328.86-14.55L328.86-14.55 328.86-11.95 314.61-11.95Q314.66-7.35 316.04-5.2 317.41-3.05 320.36-3.05L320.36-3.05Q322.36-3.05 323.59-4.65 324.81-6.25 324.81-8.95L324.81-8.95 328.86-8.95Q328.86-4.55 326.49-1.98 324.11 0.6 320.26 0.6L320.26 0.6ZM314.66-15.6L324.56-15.6Q324.56-19.35 323.46-21.3 322.36-23.25 320.21-23.25L320.21-23.25Q317.56-23.25 316.24-21.38 314.91-19.5 314.66-15.6L314.66-15.6ZM334.01 0L334.01-26.3 337.11-26.3 337.66-23.25 337.96-23.25Q340.01-26.9 344.31-26.9L344.31-26.9Q347.46-26.9 349.13-25.03 350.81-23.15 350.81-18.95L350.81-18.95 350.81 0 346.71 0 346.71-18.65Q346.71-21.2 345.76-22.23 344.81-23.25 343.01-23.25L343.01-23.25Q340.96-23.25 339.53-21.3 338.11-19.35 338.11-16.05L338.11-16.05 338.11 0 334.01 0ZM361.46 0.5Q358.96 0.5 357.86-1.23 356.76-2.95 356.76-5.55L356.76-5.55 356.76-22.65 354.51-22.65 354.51-26.3 356.76-26.3 357.66-33.6 360.86-33.6 360.86-26.3 364.41-26.3 364.41-22.65 360.86-22.65 360.86-5.45Q360.86-3.05 363.21-3.05L363.21-3.05 364.41-3.05 364.41-0.2Q363.86 0.1 363.03 0.3 362.21 0.5 361.46 0.5L361.46 0.5ZM368.85 0L368.85-26.3 372.95-26.3 372.95 0 368.85 0ZM368.75-31.4L368.75-36.15 373-36.15 373-31.4 368.75-31.4ZM385.2 0.6Q382.5 0.6 380.4-1 378.3-2.6 378.3-6.8L378.3-6.8Q378.3-11.85 381.73-13.73 385.15-15.6 391.6-15.6L391.6-15.6 391.6-19Q391.6-21.05 390.7-22.15 389.8-23.25 387.45-23.25L387.45-23.25Q385.3-23.25 384.35-22.05 383.4-20.85 383.4-19.1L383.4-19.1 383.4-18.5 379.35-18.5Q379.3-18.8 379.3-19.6L379.3-19.6Q379.3-23.1 381.6-25 383.9-26.9 387.75-26.9L387.75-26.9Q391.7-26.9 393.7-25 395.7-23.1 395.7-19.55L395.7-19.55 395.7-4.8Q395.7-3.95 396.1-3.5 396.5-3.05 397.1-3.05L397.1-3.05 398.7-3.05 398.7-0.2Q397.6 0.4 396 0.4L396 0.4Q394.4 0.4 393.33-0.48 392.25-1.35 391.85-2.85L391.85-2.85 391.6-2.85Q390.6-1.2 388.93-0.3 387.25 0.6 385.2 0.6L385.2 0.6ZM386.15-3.05Q387.5-3.05 388.75-3.8 390-4.55 390.8-6.03 391.6-7.5 391.6-9.55L391.6-9.55 391.6-11.95Q387.1-11.95 384.85-10.93 382.6-9.9 382.6-7.05L382.6-7.05Q382.6-4.9 383.48-3.98 384.35-3.05 386.15-3.05L386.15-3.05ZM401.9 0L401.9-36.15 406-36.15 406 0 401.9 0Z" opacity="1" transform="matrix(1,0,0,1,0,0)" fill="#50a060" class="slogan-text-1" data-fill-palette-color="secondary" id="text-1"></path></svg></g></svg></g></svg></g></svg></g><g transform="matrix(1,0,0,1,101.01679900898074,0)"><svg viewBox="0 0 193.48640198203856 144.21131421898687" height="144.21131421898687" width="193.48640198203856"><g><svg xmlns="http://www.w3.org/2000/svg" xmlns:xlink="http://www.w3.org/1999/xlink" version="1.1" x="0" y="0" viewBox="8.3 26.600000000000005 143.42630801125244 106.89999999999999" style="enable-background:new 0 0 160 160;" xml:space="preserve" height="144.21131421898687" width="193.48640198203856" class="icon-icon-0" data-fill-palette-color="accent" id="icon-0"><g fill="#50a060" data-fill-palette-color="accent"><path d="M151.4 102.6c-1.3-2.5-3.6-3.6-7.1-3.7-2.1 0-4.2 0.4-6.3 1.3l-21.4 9.2c-0.6 4.3-4.3 7.5-8.7 7.5l-32.2 0 32.2-4c2.6 0 4.8-2.2 4.8-4.9 0-1.3-0.5-2.5-1.4-3.5-0.9-0.9-2.1-1.4-3.4-1.4 0 0 0 0 0 0H93.3c-4.2 0-13.8-3-21-5.5-4.8-1.7-9.7-2.4-14.3-2.1-2.3 0.1-4.4 0.5-6.1 1-3.8 1.2-7.3 3.3-10.3 5.1-2.3 1.4-4.9 2.1-7.6 2.1h-5.1v22.7l16.2 0 46 6.9c2.5 0.3 5.2-0.2 7.5-1.4l52-26C151.6 105.3 152.1 103.8 151.4 102.6z" fill="#50a060" data-fill-palette-color="accent"></path><path d="M88.7 64.3v9.1c-0.1 0-0.1 0.1-0.2 0.1l-0.1 0.1c-8 5-15.2 11.3-21.2 18.6 2.1 0.4 4.2 1 6.4 1.7 9.8 3.4 16.9 5.3 19.7 5.3h14.6c0 0 0 0 0 0 2.3 0 4.6 0.9 6.2 2.6 1 1 1.7 2.1 2.1 3.4h0.1l5.4-2.3c-7.1-11.9-17-22-28.7-29.3l-0.1-0.1c-0.1 0-0.1-0.1-0.2-0.1V63L88.7 64.3z" fill="#50a060" data-fill-palette-color="accent"></path><rect x="8.3" y="100.2" width="16.5" height="33.3" fill="#50a060" data-fill-palette-color="accent"></rect><path d="M106.3 34.3l2-1c0 0-11.5 12.2-15.3 17.8l-0.4 0.7 0.2 0.1 1 0.3c2.1 0.7 4.2 1 6.4 1 1.2 0 2.5-0.1 3.7-0.3 7.3-1.3 13.9-5 18.7-10.5 3.8-4.3 8.8-7.3 14.3-8.7l-0.3-0.3c-4.4-4.3-10.4-6.8-16.5-6.8-1 0-2 0.1-3.1 0.2 0 0-0.1 0-0.1 0l-1.3 0.2c-7.8 1.1-15 5.2-19.9 11.4-1.9 2.5-3.4 5.2-4.4 8.2L91 46.9C95 41.6 100.3 37.3 106.3 34.3z" fill="#50a060" data-fill-palette-color="accent"></path><path d="M58 50.9c4.9 5.5 11.5 9.2 18.7 10.5 1.2 0.2 2.5 0.3 3.7 0.3 2.2 0 4.3-0.3 6.4-1l0.6-0.2-1.9-2.3c-2.9-3.5-11.4-12.5-11.4-12.5l1.9 0.7c4.9 2 9.2 5.2 12.6 9.2l1.5 1.8-0.5-1.5-0.3-0.8c-0.7-2.1-1.7-4.1-2.9-6-0.5-0.8-1-1.5-1.5-2.2-4.9-6.2-12-10.3-19.9-11.4l-1.3-0.2c0 0-0.1 0-0.1 0-1-0.1-2.1-0.2-3.1-0.2-6.2 0-12.1 2.5-16.5 6.8l-0.3 0.3C49.2 43.6 54.2 46.7 58 50.9z" fill="#50a060" data-fill-palette-color="accent"></path></g></svg></g></svg></g><g></g></svg></g><defs></defs></svg><rect width="370.0299545035202" height="247.2" fill="none" stroke="none" visibility="hidden"></rect></g></svg></g></svg>